# xmcd
#
# Track frame offsets: 
#        150
#        13308
#        25377
#        37731
#        50854
#        61439
#        72487
#        84467
#        95334
#        107246
#        119690
#        130668
#        147186
#        157994
#        170280
#        181144
#        192350
#        204536
#        212970
#        223159
#        234558
#        251308
#
# Disc length: 3550 seconds
#
# Revision: 0
# Processed by: cddbd v1.5.2PL0 Copyright (c) Steve Scherf et al.
# Submitted via: ExactAudioCopy v0.99pb5
#
DISCID=450ddc16
DTITLE=Dusty Springfield - Disc 04 Something Special - More Favouriite
DTITLE=s
DYEAR=2008
DGENRE=Country
TTITLE0=Wishin' And Hopin'
TTITLE1=Spooky
TTITLE2=Let Me Get In Your Way
TTITLE3=I Had A Talk With My Man Last Night
TTITLE4=Something Special
TTITLE5=Silly, Silly Fool
TTITLE6=Just One Smile
TTITLE7=The Star Of My Show
TTITLE8=I Can't Wait Until I See My Baby's Face
TTITLE9=Doodlin'
TTITLE10=I Wanna Make You Happy
TTITLE11=Where Am I Going?
TTITLE12=Haunted
TTITLE13=It Was Easier To Hurt Him
TTITLE14=Lost
TTITLE15=You Don't Own Me
TTITLE16=Broken Blossoms
TTITLE17=Sweet Lover No More
TTITLE18=Every Ounce Of Strength
TTITLE19=Go Ahead On
TTITLE20=Summer Is Over
TTITLE21=Go My Love (Goodbye)
EXTD=
EXTT0=
EXTT1=
EXTT2=
EXTT3=
EXTT4=
EXTT5=
EXTT6=
EXTT7=
EXTT8=
EXTT9=
EXTT10=
EXTT11=
EXTT12=
EXTT13=
EXTT14=
EXTT15=
EXTT16=
EXTT17=
EXTT18=
EXTT19=
EXTT20=
EXTT21=
PLAYORDER=
